<?xml version="1.0" encoding="UTF-8" standalone="no"?>
<!-- Svg Vector Icons : http://www.onlinewebfonts.com/icon -->

<svg
   version="1.1"
   x="0px"
   y="0px"
   viewBox="0 0 309.34406 320.95978"
   enable-background="new 0 0 1000 1000"
   xml:space="preserve"
   id="svg886"
   sodipodi:docname="panda.svg"
   inkscape:version="1.1.1 (3bf5ae0d25, 2021-09-20)"
   width="309.34406"
   height="320.95978"
   xmlns:inkscape="http://www.inkscape.org/namespaces/inkscape"
   xmlns:sodipodi="http://sodipodi.sourceforge.net/DTD/sodipodi-0.dtd"
   xmlns:xlink="http://www.w3.org/1999/xlink"
   xmlns="http://www.w3.org/2000/svg"
   xmlns:svg="http://www.w3.org/2000/svg"><defs
   id="defs890"><clipPath
     clipPathUnits="userSpaceOnUse"
     id="clipPath3826"><use
       x="0"
       y="0"
       xlink:href="#g3822"
       id="use3828"
       width="100%"
       height="100%" /></clipPath></defs><sodipodi:namedview
   id="namedview888"
   pagecolor="#ffffff"
   bordercolor="#666666"
   borderopacity="1.0"
   inkscape:pageshadow="2"
   inkscape:pageopacity="0.0"
   inkscape:pagecheckerboard="0"
   showgrid="false"
   inkscape:zoom="0.487"
   inkscape:cx="575.97536"
   inkscape:cy="239.21971"
   inkscape:window-width="1280"
   inkscape:window-height="738"
   inkscape:window-x="-6"
   inkscape:window-y="-6"
   inkscape:window-maximized="1"
   inkscape:current-layer="g3822" />
<metadata
   id="metadata858"> Svg Vector Icons : http://www.onlinewebfonts.com/icon </metadata>
<g
   id="g884"
   transform="matrix(0.28303358,0,0,0.28303358,5.6480617,14.81255)"
   style="stroke:none"><g
     id="g3824"
     clip-path="url(#clipPath3826)"><g
       inkscape:label="Clip"
       id="g3822"><path
         d="m 928.5,444.9 c -1,-17.9 -5.5,-35.7 -8.3,-53.5 -5.6,13.1 -8.2,26 -10.9,38.9 -21.5,105.3 -93.5,167.1 -201.1,173.9 -9.1,0.6 -20.1,6.2 -26.3,13 -22.4,24.6 -34.7,29.1 -65.6,16.3 -19,-7.9 -37.3,-12.3 -58.3,-7.9 -29,6 -42.9,-0.9 -55.6,-28.3 -9.3,-20.2 -23.9,-31 -44.3,-37.2 C 405,544 368.2,508.8 349,457.5 c -37.3,-99.9 -11.8,-190.1 47.1,-274 6.1,-8.7 14.2,-13.5 25.1,-8 14.6,7.4 27,1.7 39.2,-6.4 22.7,-15 46,-29.3 68.3,-44.9 6.4,-4.5 13.4,-11.8 15,-19 8.1,-37.7 -29.5,-91 -67.8,-94.8 -41.3,-4.1 -71.4,16.5 -92.7,50.1 -17.5,27.5 -14.6,55.8 3,82.4 7.6,11.4 6.9,19.4 -4.5,27.5 -10.4,7.3 -20,15.9 -29.7,24.2 -63.1,54 -96.5,122.5 -99,205.7 -0.8,25.5 0.5,51.3 -2.1,76.6 -4.5,44.4 -10.2,88.5 5.1,132 1.4,4 2.1,8.3 2.4,12.5 0.9,12.5 -4.9,15.5 -15.6,10.2 -4.3,-2.2 -8.3,-5 -12.3,-7.8 C 192,596.5 166.2,559.2 147.4,516.9 100.3,410.7 104.2,308.7 174.9,213.1 c 9.9,-13.4 21.8,-25.2 32.7,-37.8 -45.2,23.8 -77.3,60.6 -101.5,103.9 C 78.2,329 63.3,383 66.6,440.4 c 4,69.1 5.8,138.7 16.8,206.7 7.6,46.7 27,92 45.2,136.2 22.4,54.6 62.9,86.9 125,86.6 49.6,-0.2 60.2,-14.3 46.3,-61.2 -6.2,-20.9 -10.6,-42.5 -14.1,-64 -1,-5.9 4.3,-12.8 6.7,-19.2 4.9,4.7 11.5,8.6 14.4,14.3 10,20.2 18.5,41.1 28,61.5 25,53.4 48.1,108.3 96.5,146.3 53.2,41.8 112.4,52.8 176.8,32.2 24,-7.7 28.5,-17.4 17.7,-39.8 -17.3,-36.2 -26.5,-74.4 -30.6,-113.9 -3.8,-36.8 -3.1,-73.7 16.1,-106.5 6,-10.2 19.2,-20.7 30.3,-22.1 14.7,-1.9 23.8,13.7 24.9,26.9 2.7,31.8 4,64 2.7,95.9 -1,24.7 -8.7,49.1 -9.7,73.8 -1.3,31 18.4,54.8 45.3,53 50.2,-3.5 95.4,-19.4 121.8,-67.3 24.7,-44.8 44.6,-91.5 61.1,-140.2 32.8,-95.9 46.3,-193.9 40.7,-294.7 z"
         id="path860"
         style="stroke:none" /><path
         d="m 886.7,71.8 c -24.3,-15 -51,-17.1 -76.4,-3.3 -26.1,14.1 -40.3,37.5 -46.5,71.4 3.8,5.6 7.9,15 14.8,21.1 20.9,18.3 44,34.1 64.1,53.1 14.4,13.7 28.9,15.8 44.4,6.7 22.2,-12.9 38.6,-31.7 44.7,-57.3 8,-33.4 -9.5,-69.8 -45.1,-91.7 z"
         id="path862"
         style="stroke:none" /><path
         d="m 753.3,366.5 c -16.4,-8.5 -33.9,-10 -47.4,3.6 -15.2,15.4 -32.8,33.8 -25.3,56.9 8.5,26.2 22.7,50.9 36.6,74.9 5,8.6 16.7,13.3 21,16.6 24.5,-1.2 39,-8.1 48.7,-22.8 25.6,-38.4 7.4,-107.7 -33.6,-129.2 z"
         id="path864"
         style="stroke:none" /><path
         d="m 548.6,355.9 c -9.9,-21.8 -29.9,-30.5 -52.6,-22.8 -38.3,12.9 -63.3,47.9 -63.3,88.6 0,29.1 12.3,49.9 33.6,56.8 20.4,6.6 36.9,-1.4 56,-27.1 5.1,-6.8 9.6,-14.4 15.9,-19.8 26.1,-22.4 22.9,-48.3 10.4,-75.7 z"
         id="path866"
         style="stroke:none" /><path
         d="m 631.8,552.5 c -19.9,-5 -40.3,-7.9 -62,-11.8 -7.1,2.2 -15.8,3.5 -22.8,7.5 -7.8,4.5 -8.7,12.6 0.2,17.1 26.6,13.8 51.7,38.5 84.5,13.7 5.3,-4 10.3,-8.5 15.4,-12.7 -5.1,-4.8 -9.5,-12.4 -15.3,-13.8 z"
         id="path868"
         style="stroke:none" /><path
         d="m 928.5,444.9 c -1,-17.9 -5.5,-35.7 -8.3,-53.5 -5.6,13.1 -8.2,26 -10.9,38.9 -21.5,105.3 -93.5,167.1 -201.1,173.9 -9.1,0.6 -20.1,6.2 -26.3,13 -22.4,24.6 -34.7,29.1 -65.6,16.3 -19,-7.9 -37.3,-12.3 -58.3,-7.9 -29,6 -42.9,-0.9 -55.6,-28.3 -9.3,-20.2 -23.9,-31 -44.3,-37.2 C 405,544 368.2,508.8 349,457.5 c -37.3,-99.9 -11.8,-190.1 47.1,-274 6.1,-8.7 14.2,-13.5 25.1,-8 14.6,7.4 27,1.7 39.2,-6.4 22.7,-15 46,-29.3 68.3,-44.9 6.4,-4.5 13.4,-11.8 15,-19 8.1,-37.7 -29.5,-91 -67.8,-94.8 -41.3,-4.1 -71.4,16.5 -92.7,50.1 -17.5,27.5 -14.6,55.8 3,82.4 7.6,11.4 6.9,19.4 -4.5,27.5 -10.4,7.3 -20,15.9 -29.7,24.2 -63.1,54 -96.5,122.5 -99,205.7 -0.8,25.5 0.5,51.3 -2.1,76.6 -4.5,44.4 -10.2,88.5 5.1,132 1.4,4 2.1,8.3 2.4,12.5 0.9,12.5 -4.9,15.5 -15.6,10.2 -4.3,-2.2 -8.3,-5 -12.3,-7.8 C 192,596.5 166.2,559.2 147.4,516.9 100.3,410.7 104.2,308.7 174.9,213.1 c 9.9,-13.4 21.8,-25.2 32.7,-37.8 -45.2,23.8 -77.3,60.6 -101.5,103.9 C 78.2,329 63.3,383 66.6,440.4 c 4,69.1 5.8,138.7 16.8,206.7 7.6,46.7 27,92 45.2,136.2 22.4,54.6 62.9,86.9 125,86.6 49.6,-0.2 60.2,-14.3 46.3,-61.2 -6.2,-20.9 -10.6,-42.5 -14.1,-64 -1,-5.9 4.3,-12.8 6.7,-19.2 4.9,4.7 11.5,8.6 14.4,14.3 10,20.2 18.5,41.1 28,61.5 25,53.4 48.1,108.3 96.5,146.3 53.2,41.8 112.4,52.8 176.8,32.2 24,-7.7 28.5,-17.4 17.7,-39.8 -17.3,-36.2 -26.5,-74.4 -30.6,-113.9 -3.8,-36.8 -3.1,-73.7 16.1,-106.5 6,-10.2 19.2,-20.7 30.3,-22.1 14.7,-1.9 23.8,13.7 24.9,26.9 2.7,31.8 4,64 2.7,95.9 -1,24.7 -8.7,49.1 -9.7,73.8 -1.3,31 18.4,54.8 45.3,53 50.2,-3.5 95.4,-19.4 121.8,-67.3 24.7,-44.8 44.6,-91.5 61.1,-140.2 32.8,-95.9 46.3,-193.9 40.7,-294.7 z"
         id="path870"
         style="stroke:none" /><path
         d="m 536.2,634.3 c 6.3,25.9 28.6,40.4 58.7,39.2 23.9,-0.9 37.1,-10 39.5,-26.2 -32.2,-4.3 -64.4,-8.6 -98.2,-13 z"
         id="path872"
         style="stroke:none" /><path
         d="m 886.7,71.8 c -24.3,-15 -51,-17.1 -76.4,-3.3 -26.1,14.1 -40.3,37.5 -46.5,71.4 3.8,5.6 7.9,15 14.8,21.1 20.9,18.3 44,34.1 64.1,53.1 14.4,13.7 28.9,15.8 44.4,6.7 22.2,-12.9 38.6,-31.7 44.7,-57.3 8,-33.4 -9.5,-69.8 -45.1,-91.7 z"
         id="path874"
         style="stroke:none" /><path
         d="m 753.3,366.5 c -16.4,-8.5 -33.9,-10 -47.4,3.6 -15.2,15.4 -32.8,33.8 -25.3,56.9 8.5,26.2 22.7,50.9 36.6,74.9 5,8.6 16.7,13.3 21,16.6 24.5,-1.2 39,-8.1 48.7,-22.8 25.6,-38.4 7.4,-107.7 -33.6,-129.2 z"
         id="path876"
         style="stroke:none" /><path
         d="m 548.6,355.9 c -9.9,-21.8 -29.9,-30.5 -52.6,-22.8 -38.3,12.9 -63.3,47.9 -63.3,88.6 0,29.1 12.3,49.9 33.6,56.8 20.4,6.6 36.9,-1.4 56,-27.1 5.1,-6.8 9.6,-14.4 15.9,-19.8 26.1,-22.4 22.9,-48.3 10.4,-75.7 z"
         id="path878"
         style="stroke:none" /><path
         d="m 631.8,552.5 c -19.9,-5 -40.3,-7.9 -62,-11.8 -7.1,2.2 -15.8,3.5 -22.8,7.5 -7.8,4.5 -8.7,12.6 0.2,17.1 26.6,13.8 51.7,38.5 84.5,13.7 5.3,-4 10.3,-8.5 15.4,-12.7 -5.1,-4.8 -9.5,-12.4 -15.3,-13.8 z"
         id="path880"
         style="stroke:none" /><path
         d="m 536.2,634.3 c 6.3,25.9 28.6,40.4 58.7,39.2 23.9,-0.9 37.1,-10 39.5,-26.2 -32.2,-4.3 -64.4,-8.6 -98.2,-13 z"
         id="path882"
         style="stroke:none" /><rect
         style="fill:none;stroke:#000000;stroke-width:0.267073;stroke-miterlimit:4;stroke-dasharray:none;stroke-opacity:1"
         id="rect1552"
         width="1092.6918"
         height="1133.7318"
         x="-19.821911"
         y="-52.20142" /></g></g></g>
</svg>
