<?xml version="1.0" encoding="UTF-8" standalone="no"?>
<!-- Created with Inkscape (http://www.inkscape.org/) -->

<svg
   version="1.1"
   id="svg1610"
   xml:space="preserve"
   width="1588"
   height="1122.6667"
   viewBox="0 0 1588 1122.6667"
   sodipodi:docname="pentagon.svg"
   inkscape:version="1.1.1 (3bf5ae0d25, 2021-09-20)"
   xmlns:inkscape="http://www.inkscape.org/namespaces/inkscape"
   xmlns:sodipodi="http://sodipodi.sourceforge.net/DTD/sodipodi-0.dtd"
   xmlns="http://www.w3.org/2000/svg"
   xmlns:svg="http://www.w3.org/2000/svg"><defs
     id="defs1614"><clipPath
       clipPathUnits="userSpaceOnUse"
       id="clipPath1624"><path
         d="m 9453,5619 h 2331 V 7851 H 9453 V 5619"
         id="path1622" /></clipPath><clipPath
       clipPathUnits="userSpaceOnUse"
       id="clipPath2276"><path
         id="path2278"
         style="fill:#ff0000;fill-opacity:1;fill-rule:nonzero;stroke:none;stroke-width:12.5"
         d="m 10786.967,8075.6941 -746.954,-990.5605 969.313,-730.9319 746.954,990.5605 z m -428.895,-760.7327 c 0.02,-0.011 0.04,-0.032 0.06,-0.045 0.203,-0.1216 0.358,-0.4435 0.476,-1.032 0.234,-1.1721 0.146,-2.1543 -0.711,-3.0108 -0.03,-0.028 -0.07,-0.073 -0.108,-0.1017 l -0.02,0.015 c -0.123,-0.2672 -0.236,-0.5214 -0.383,-0.7508 0,-0.01 0,-0.016 0,-0.035 0,-0.028 -0.03,-0.056 -0.04,-0.095 0,0.027 0,0.062 0,0.09 -0.149,-0.2181 -0.329,-0.4205 -0.579,-0.6025 0.01,-0.023 0.03,-0.04 0.04,-0.065 0.118,-0.01 0.189,-0.017 0.318,-0.025 0.07,0.1943 0.157,0.3746 0.216,0.5712 -0.02,-0.6945 0,-0.6845 -0.331,-1.371 -0.02,-0.147 -0.05,-0.2826 -0.1,-0.4145 0,-0.035 0,-0.062 -0.02,-0.11 l -0.02,-0.02 c -0.03,-0.067 -0.06,-0.1229 -0.113,-0.1907 l -0.01,-0.02 c -0.04,-0.2404 -0.06,-0.4878 -0.143,-0.7171 0,-0.011 -0.03,-0.026 -0.03,-0.04 0,-0.016 -0.01,-0.038 -0.01,-0.055 -0.08,-0.8073 -0.224,-1.5056 -0.562,-2.2055 0.08,-0.5957 -0.01,-1.1145 -0.395,-1.2928 -0.02,-0.015 -0.219,-0.048 -0.458,-0.081 l -0.06,0.01 c -0.736,-0.1031 -2.121,-0.2214 -2.954,0.1785 -0.03,-0.024 -0.08,-0.065 -0.128,-0.087 0.08,-0.1387 0.183,-0.2788 0.282,-0.396 -0.166,0.078 -0.314,0.1433 -0.424,0.2886 l -0.02,0.015 c -0.6,-0.4242 -0.872,-0.1187 -3.07,0.511 -0.05,0.02 -0.105,0.048 -0.167,0.063 -0.1,0.079 -0.195,0.1505 -0.292,0.2205 -0.07,0.035 -0.139,0.057 -0.206,0.093 0.08,-0.078 0.197,-0.163 0.316,-0.2698 0.06,-0.01 0.09,-0.04 0.147,-0.048 0.1,-0.079 0.184,-0.1697 0.263,-0.2604 v -0.035 c -0.08,0.043 -0.27,0.1898 -0.448,0.3379 -0.189,0.048 -0.383,0.087 -0.595,0.1433 -0.03,0.01 -0.05,0.1352 -0.06,0.2882 -0.09,0.05 -0.148,0.1273 -0.218,0.196 -0.07,-0.037 -0.143,-0.086 -0.227,-0.1344 -1.397,-0.092 -1.519,-0.2068 -1.46,1.2264 -0.09,-0.075 -0.187,-0.1235 -0.271,-0.1933 -0.07,0.01 -0.148,0.018 -0.231,0.018 0.136,0.077 0.339,0.7231 0.555,1.1408 0.01,0.179 0.02,0.3524 0.03,0.5614 -0.285,-0.4817 -0.767,-0.9135 -0.737,-1.4626 0,-0.115 0.06,-0.2151 0.09,-0.2492 -0.234,0.01 -0.479,0.026 -0.708,0.075 -0.438,0.094 -1.574,0.8069 -1.51,1.2012 0,0.045 0.04,0.1299 0.04,0.1819 -0.07,0.2597 -0.121,0.6148 -0.198,0.7915 -0.03,0.3171 -0.08,0.6287 -0.08,0.9472 -0.03,2.1608 0.991,4.1334 1.178,6.2666 0.363,3.7715 4.097,3.5127 4.288,0.3746 1.152,-0.6227 1.878,-0.9652 2.365,-1.2026 0.221,0.2954 0.441,0.582 0.662,0.8773 0.08,0.1089 0.135,0.2616 0.25,0.3313 0.604,0.34 1.253,0.5828 1.882,0.8742 0.57,-0.228 1.192,-0.3649 1.717,-0.6828 0.54,-0.3287 0.782,-1.2928 0.98,-2.2687 0.66,0.9368 1.382,1.8953 1.909,1.6798 z m -7.943,-1.5321 c -0.223,0.1213 -0.353,0.1567 -0.298,0.01 0.03,-0.085 0.09,-0.1607 0.12,-0.2465 0.06,0.08 0.117,0.1557 0.176,0.2335 z" /></clipPath></defs><sodipodi:namedview
     id="namedview1612"
     pagecolor="#ffffff"
     bordercolor="#666666"
     borderopacity="1.0"
     inkscape:pageshadow="2"
     inkscape:pageopacity="0.0"
     inkscape:pagecheckerboard="0"
     showgrid="false"
     inkscape:zoom="3.6270782"
     inkscape:cx="157.01343"
     inkscape:cy="101.04552"
     inkscape:window-width="1280"
     inkscape:window-height="738"
     inkscape:window-x="-6"
     inkscape:window-y="-6"
     inkscape:window-maximized="1"
     inkscape:current-layer="g1620" /><g
     id="g1616"
     inkscape:groupmode="layer"
     inkscape:label="pentagon"
     transform="matrix(0.08,0,0,-0.08,0,1122.6667)"><g
       id="g1618"
       transform="rotate(37.018926,-2206.3043,-3395.4376)"><g
         id="g1620"
         clip-path="url(#clipPath1624)"><path
           d="m 10360.565,7305.7871 -131.841,-350.9148 280.277,-214.3712 46.117,59.5104 32.109,-24.6415 -46.171,-60.1348 279.097,-213.76 305.358,219.7218 -38.665,58.8274 35.02,25.8042 39.238,-59.4441 304.054,218.4647 -91.409,349.1128 -69.615,-22.9714 -10.472,40.3789 69.646,23.5948 -91.33,350.3597 -361.729,-2.9191 -4.247,-73.4912 -42.08,-0.3391 4.24,73.4904 -360.497,-2.9089 -132.667,-354.6555 55.039,-18.2317 -15.004,-38.0942 -67.023,21.8704"
           style="fill:none;stroke:#000000;stroke-width:0.94488188;stroke-linecap:round;stroke-linejoin:round;stroke-miterlimit:10;stroke-dasharray:none;stroke-opacity:1"
           id="path1626"
           clip-path="url(#clipPath2276)" /></g></g></g></svg>
