<?xml version="1.0" encoding="UTF-8" standalone="no"?>
<svg
   xmlns:dc="http://purl.org/dc/elements/1.1/"
   xmlns:cc="http://creativecommons.org/ns#"
   xmlns:rdf="http://www.w3.org/1999/02/22-rdf-syntax-ns#"
   xmlns:svg="http://www.w3.org/2000/svg"
   xmlns="http://www.w3.org/2000/svg"
   xmlns:sodipodi="http://sodipodi.sourceforge.net/DTD/sodipodi-0.dtd"
   xmlns:inkscape="http://www.inkscape.org/namespaces/inkscape"
   version="1.1"
   width="48.099998mm"
   height="24.1mm"
   viewBox="0 0 48100002 24100001"
   id="svg62"
   sodipodi:docname="Programmer-UPDI-D11C-Edge_CutsReziseFilled1mmMarginCentered.svg"
   inkscape:version="1.0.2-2 (e86c870879, 2021-01-15)">
  <metadata
     id="metadata68">
    <rdf:RDF>
      <cc:Work
         rdf:about="">
        <dc:format>image/svg+xml</dc:format>
        <dc:type
           rdf:resource="http://purl.org/dc/dcmitype/StillImage" />
        <dc:title>SVG Picture created as Programmer-UPDI-D11C-Edge_Cuts.svg date 2022/02/08 09:50:14 </dc:title>
      </cc:Work>
    </rdf:RDF>
  </metadata>
  <defs
     id="defs66" />
  <sodipodi:namedview
     pagecolor="#ffffff"
     bordercolor="#666666"
     borderopacity="1"
     objecttolerance="10"
     gridtolerance="10"
     guidetolerance="10"
     inkscape:pageopacity="0"
     inkscape:pageshadow="2"
     inkscape:window-width="1920"
     inkscape:window-height="1001"
     id="namedview64"
     showgrid="false"
     fit-margin-top="0"
     fit-margin-left="0"
     fit-margin-right="0"
     fit-margin-bottom="0"
     inkscape:zoom="5.4685854"
     inkscape:cx="83.876409"
     inkscape:cy="40.263028"
     inkscape:window-x="-9"
     inkscape:window-y="-9"
     inkscape:window-maximized="1"
     inkscape:current-layer="svg62"
     units="mm" />
  <title
     id="title2">SVG Picture created as Programmer-UPDI-D11C-Edge_Cuts.svg date 2022/02/08 09:50:14 </title>
  <desc
     id="desc4">Picture generated by PCBNEW </desc>
  <g
     style="fill:#000000;fill-opacity:1;stroke:#000000;stroke-linecap:round;stroke-linejoin:round;stroke-opacity:1"
     id="g6"
     transform="translate(-2560000,-7490477)" />
  <g
     style="fill:#000000;fill-opacity:0;stroke:#000000;stroke-width:0;stroke-linecap:round;stroke-linejoin:round;stroke-opacity:1"
     id="g8"
     transform="translate(-2560000,-7490477)" />
  <g
     style="fill:#000000;fill-opacity:0;stroke:#000000;stroke-width:100000;stroke-linecap:round;stroke-linejoin:round;stroke-opacity:1"
     id="g60"
     transform="translate(-1560000.4,-6490476.4)">
    <path
       d="m 48610001,13040477 a 500001,500001 0 0 0 -500000,-500000"
       id="path10" />
    <path
       d="M 48610000,13040477 V 24040477"
       id="path12" />
    <path
       d="m 48110001,24540477 a 500001,500001 0 0 0 500000,-500000"
       id="path14" />
    <path
       d="M 36609999,29540477 H 4610001"
       id="path16" />
    <path
       d="M 48110001,24540477 H 38610001"
       id="path18" />
    <path
       d="m 38610001,24540477 v 3000000"
       id="path20" />
    <path
       d="M 4610001,7540479 A 1999999,1999999 0 0 0 2610001,9540479"
       id="path22" />
    <path
       d="m 2610001,27540477 a 1999999,1999999 0 0 0 2000000,2000000"
       id="path24" />
    <path
       d="m 36609999,29540477 a 1999999,1999999 0 0 0 2000000,-2000000"
       id="path26" />
    <path
       d="M 2610000,9540477 V 27540477"
       id="path28" />
    <path
       d="M 38610001,12540477 V 9540477"
       id="path30" />
    <path
       d="M 38609999,9540477 A 1999999,1999999 0 0 0 36609999,7540477"
       id="path32" />
    <path
       d="m 36609999,7540477 -31999998,2"
       id="path34" />
    <path
       d="m 38610001,12540477 h 9500000"
       id="path36" />
    <g
       id="g38" />
    <g
       id="g40" />
    <g
       id="g42" />
    <g
       id="g44" />
    <g
       id="g46" />
    <g
       id="g48" />
    <g
       id="g50" />
    <g
       id="g52" />
    <g
       id="g54" />
    <g
       id="g56" />
    <g
       id="g58" />
  </g>
  <path
     style="fill:#000000;stroke-width:49999.9"
     d="m 2608394.5,22941732 c -639831.4,-151425 -1169461.2,-645333 -1388161.3,-1294534 l -100603.7,-298638 12697.2,-9373833 12697.1,-9373832.4 155272.9,-327803.6 c 275634.4,-581904.3 793493.3,-976190.4 1438137,-1094965.1 405417.6,-74697.5 32209866.3,-74932.7 32613909.3,-241.1 389276,71961.6 778036,280561.4 1043977,560173.3 544497,572493.8 575879,724215.5 575879,2784106.8 v 1634836.9 h 4864632 4864632 l 115549,115550.5 c 63553,63552.6 128754,188742.1 144894,278198.8 16139,89456.7 23019,2638732.6 15293,5665057.9 l -14050,5502409 -134141,134142 -134144,134141 -4861340,12780 -4861344,12779 v 1609962 c 0,1708431 -22674,1926290 -246089,2364213 -155715,305228 -537929,656017 -903441,829162 l -326133,154492 -16353255,7413 c -9394179.9,4259 -16430528.6,-10877 -16534867.5,-35570 z"
     id="path893" />
</svg>
