<?xml version="1.0" encoding="UTF-8" standalone="no"?>
<svg
   xmlns:dc="http://purl.org/dc/elements/1.1/"
   xmlns:cc="http://creativecommons.org/ns#"
   xmlns:rdf="http://www.w3.org/1999/02/22-rdf-syntax-ns#"
   xmlns:svg="http://www.w3.org/2000/svg"
   xmlns="http://www.w3.org/2000/svg"
   xmlns:sodipodi="http://sodipodi.sourceforge.net/DTD/sodipodi-0.dtd"
   xmlns:inkscape="http://www.inkscape.org/namespaces/inkscape"
   version="1.1"
   width="1060"
   height="375"
   viewBox="0 0 299.15558 105.83334"
   id="svg2"
   inkscape:version="0.47 r22583"
   sodipodi:docname="simplebox-type2.svg">
  <metadata
     id="metadata352">
    <rdf:RDF>
      <cc:Work
         rdf:about="">
        <dc:format>image/svg+xml</dc:format>
        <dc:type
           rdf:resource="http://purl.org/dc/dcmitype/StillImage" />
      </cc:Work>
    </rdf:RDF>
  </metadata>
  <defs
     id="defs350">
    <inkscape:perspective
       sodipodi:type="inkscape:persp3d"
       inkscape:vp_x="0 : 1062.9921 : 1"
       inkscape:vp_y="0 : 1000 : 0"
       inkscape:vp_z="2125.9841 : 1062.9921 : 1"
       inkscape:persp3d-origin="1062.9921 : 708.66138 : 1"
       id="perspective354" />
  </defs>
  <sodipodi:namedview
     pagecolor="#ffffff"
     bordercolor="#666666"
     borderopacity="1"
     objecttolerance="10"
     gridtolerance="10"
     guidetolerance="10"
     inkscape:pageopacity="0"
     inkscape:pageshadow="2"
     inkscape:window-width="1214"
     inkscape:window-height="838"
     id="namedview348"
     showgrid="false"
     inkscape:zoom="1.05"
     inkscape:cx="530"
     inkscape:cy="187.5"
     inkscape:window-x="0"
     inkscape:window-y="0"
     inkscape:window-maximized="0"
     inkscape:current-layer="g6"
     units="in" />
  <g
     id="g4"
     transform="translate(-2.8918915,74.248464)">
    <g
       id="g6"
       style="stroke:#ff0000"
       transform="translate(-6.5371888,-46.552272)">
      <g
         id="g10"
         style="stroke:#ff0000">
        <polyline
           points=" 51,45 51,70.5"
           style="fill:none;stroke:#ff0000;stroke-width:1"
           id="polyline12"
           transform="translate(11.671939,-27.58822)" />
        <polyline
           points=" 51,73.5 51,99"
           style="fill:none;stroke:#ff0000;stroke-width:1"
           id="polyline14"
           transform="translate(11.671939,-27.58822)" />
        <polyline
           points=" 52.5,42 52.5,56.25"
           style="fill:none;stroke:#ff0000;stroke-width:1"
           id="polyline16"
           transform="translate(11.671939,-27.58822)" />
        <polyline
           points=" 52.5,59.25 52.5,84.75"
           style="fill:none;stroke:#ff0000;stroke-width:1"
           id="polyline18"
           transform="translate(11.671939,-27.58822)" />
        <polyline
           points=" 52.5,87.75 52.5,102"
           style="fill:none;stroke:#ff0000;stroke-width:1"
           id="polyline20"
           transform="translate(11.671939,-27.58822)" />
        <polyline
           points=" 54,45 54,70.5"
           style="fill:none;stroke:#ff0000;stroke-width:1"
           id="polyline22"
           transform="translate(11.671939,-27.58822)" />
        <polyline
           points=" 54,73.5 54,99"
           style="fill:none;stroke:#ff0000;stroke-width:1"
           id="polyline24"
           transform="translate(11.671939,-27.58822)" />
        <polyline
           points=" 55.5,42 55.5,56.25"
           style="fill:none;stroke:#ff0000;stroke-width:1"
           id="polyline26"
           transform="translate(11.671939,-27.58822)" />
        <polyline
           points=" 55.5,59.25 55.5,84.75"
           style="fill:none;stroke:#ff0000;stroke-width:1"
           id="polyline28"
           transform="translate(11.671939,-27.58822)" />
        <polyline
           points=" 55.5,87.75 55.5,102"
           style="fill:none;stroke:#ff0000;stroke-width:1"
           id="polyline30"
           transform="translate(11.671939,-27.58822)" />
        <polyline
           points=" 57,45 57,70.5"
           style="fill:none;stroke:#ff0000;stroke-width:1"
           id="polyline32"
           transform="translate(11.671939,-27.58822)" />
        <polyline
           points=" 57,73.5 57,99"
           style="fill:none;stroke:#ff0000;stroke-width:1"
           id="polyline34"
           transform="translate(11.671939,-27.58822)" />
        <polyline
           points=" 58.5,42 58.5,56.25"
           style="fill:none;stroke:#ff0000;stroke-width:1"
           id="polyline36"
           transform="translate(11.671939,-27.58822)" />
        <polyline
           points=" 58.5,59.25 58.5,84.75"
           style="fill:none;stroke:#ff0000;stroke-width:1"
           id="polyline38"
           transform="translate(11.671939,-27.58822)" />
        <polyline
           points=" 58.5,87.75 58.5,102"
           style="fill:none;stroke:#ff0000;stroke-width:1"
           id="polyline40"
           transform="translate(11.671939,-27.58822)" />
        <polyline
           points=" 60,45 60,70.5"
           style="fill:none;stroke:#ff0000;stroke-width:1"
           id="polyline42"
           transform="translate(11.671939,-27.58822)" />
        <polyline
           points=" 60,73.5 60,99"
           style="fill:none;stroke:#ff0000;stroke-width:1"
           id="polyline44"
           transform="translate(11.671939,-27.58822)" />
        <polyline
           points=" 61.5,42 61.5,56.25"
           style="fill:none;stroke:#ff0000;stroke-width:1"
           id="polyline46"
           transform="translate(11.671939,-27.58822)" />
        <polyline
           points=" 61.5,59.25 61.5,84.75"
           style="fill:none;stroke:#ff0000;stroke-width:1"
           id="polyline48"
           transform="translate(11.671939,-27.58822)" />
        <polyline
           points=" 61.5,87.75 61.5,102"
           style="fill:none;stroke:#ff0000;stroke-width:1"
           id="polyline50"
           transform="translate(11.671939,-27.58822)" />
        <polyline
           points=" 63,45 63,70.5"
           style="fill:none;stroke:#ff0000;stroke-width:1"
           id="polyline52"
           transform="translate(11.671939,-27.58822)" />
        <polyline
           points=" 63,73.5 63,99"
           style="fill:none;stroke:#ff0000;stroke-width:1"
           id="polyline54"
           transform="translate(11.671939,-27.58822)" />
        <polyline
           points=" 64.5,42 64.5,56.25"
           style="fill:none;stroke:#ff0000;stroke-width:1"
           id="polyline56"
           transform="translate(11.671939,-27.58822)" />
        <polyline
           points=" 64.5,59.25 64.5,84.75"
           style="fill:none;stroke:#ff0000;stroke-width:1"
           id="polyline58"
           transform="translate(11.671939,-27.58822)" />
        <polyline
           points=" 64.5,87.75 64.5,102"
           style="fill:none;stroke:#ff0000;stroke-width:1"
           id="polyline60"
           transform="translate(11.671939,-27.58822)" />
        <polyline
           points=" 66,45 66,70.5"
           style="fill:none;stroke:#ff0000;stroke-width:1"
           id="polyline62"
           transform="translate(11.671939,-27.58822)" />
        <polyline
           points=" 66,73.5 66,99"
           style="fill:none;stroke:#ff0000;stroke-width:1"
           id="polyline64"
           transform="translate(11.671939,-27.58822)" />
        <polyline
           points=" 67.5,42 67.5,56.25"
           style="fill:none;stroke:#ff0000;stroke-width:1"
           id="polyline66"
           transform="translate(11.671939,-27.58822)" />
        <polyline
           points=" 67.5,59.25 67.5,84.75"
           style="fill:none;stroke:#ff0000;stroke-width:1"
           id="polyline68"
           transform="translate(11.671939,-27.58822)" />
        <polyline
           points=" 67.5,87.75 67.5,102"
           style="fill:none;stroke:#ff0000;stroke-width:1"
           id="polyline70"
           transform="translate(11.671939,-27.58822)" />
        <polyline
           points=" 69,45 69,70.5"
           style="fill:none;stroke:#ff0000;stroke-width:1"
           id="polyline72"
           transform="translate(11.671939,-27.58822)" />
        <polyline
           points=" 69,73.5 69,99"
           style="fill:none;stroke:#ff0000;stroke-width:1"
           id="polyline74"
           transform="translate(11.671939,-27.58822)" />
        <polyline
           points=" 70.5,42 70.5,56.25"
           style="fill:none;stroke:#ff0000;stroke-width:1"
           id="polyline76"
           transform="translate(11.671939,-27.58822)" />
        <polyline
           points=" 70.5,59.25 70.5,84.75"
           style="fill:none;stroke:#ff0000;stroke-width:1"
           id="polyline78"
           transform="translate(11.671939,-27.58822)" />
        <polyline
           points=" 70.5,87.75 70.5,102"
           style="fill:none;stroke:#ff0000;stroke-width:1"
           id="polyline80"
           transform="translate(11.671939,-27.58822)" />
        <polyline
           points=" 72,45 72,70.5"
           style="fill:none;stroke:#ff0000;stroke-width:1"
           id="polyline82"
           transform="translate(11.671939,-27.58822)" />
        <polyline
           points=" 72,73.5 72,99"
           style="fill:none;stroke:#ff0000;stroke-width:1"
           id="polyline84"
           transform="translate(11.671939,-27.58822)" />
        <polyline
           points=" 73.5,42 73.5,56.25"
           style="fill:none;stroke:#ff0000;stroke-width:1"
           id="polyline86"
           transform="translate(11.671939,-27.58822)" />
        <polyline
           points=" 73.5,59.25 73.5,84.75"
           style="fill:none;stroke:#ff0000;stroke-width:1"
           id="polyline88"
           transform="translate(11.671939,-27.58822)" />
        <polyline
           points=" 73.5,87.75 73.5,102"
           style="fill:none;stroke:#ff0000;stroke-width:1"
           id="polyline90"
           transform="translate(11.671939,-27.58822)" />
        <polyline
           points=" 75,45 75,70.5"
           style="fill:none;stroke:#ff0000;stroke-width:1"
           id="polyline92"
           transform="translate(11.671939,-27.58822)" />
        <polyline
           points=" 75,73.5 75,99"
           style="fill:none;stroke:#ff0000;stroke-width:1"
           id="polyline94"
           transform="translate(11.671939,-27.58822)" />
        <polyline
           points=" 76.5,42 76.5,56.25"
           style="fill:none;stroke:#ff0000;stroke-width:1"
           id="polyline96"
           transform="translate(11.671939,-27.58822)" />
        <polyline
           points=" 76.5,59.25 76.5,84.75"
           style="fill:none;stroke:#ff0000;stroke-width:1"
           id="polyline98"
           transform="translate(11.671939,-27.58822)" />
        <polyline
           points=" 76.5,87.75 76.5,102"
           style="fill:none;stroke:#ff0000;stroke-width:1"
           id="polyline100"
           transform="translate(11.671939,-27.58822)" />
        <polyline
           points=" 78,45 78,70.5"
           style="fill:none;stroke:#ff0000;stroke-width:1"
           id="polyline102"
           transform="translate(11.671939,-27.58822)" />
        <polyline
           points=" 78,73.5 78,99"
           style="fill:none;stroke:#ff0000;stroke-width:1"
           id="polyline104"
           transform="translate(11.671939,-27.58822)" />
        <polyline
           points=" 79.5,42 79.5,56.25"
           style="fill:none;stroke:#ff0000;stroke-width:1"
           id="polyline106"
           transform="translate(11.671939,-27.58822)" />
        <polyline
           points=" 79.5,59.25 79.5,84.75"
           style="fill:none;stroke:#ff0000;stroke-width:1"
           id="polyline108"
           transform="translate(11.671939,-27.58822)" />
        <polyline
           points=" 79.5,87.75 79.5,102"
           style="fill:none;stroke:#ff0000;stroke-width:1"
           id="polyline110"
           transform="translate(11.671939,-27.58822)" />
        <polyline
           points=" 81,45 81,70.5"
           style="fill:none;stroke:#ff0000;stroke-width:1"
           id="polyline112"
           transform="translate(11.671939,-27.58822)" />
        <polyline
           points=" 81,73.5 81,99"
           style="fill:none;stroke:#ff0000;stroke-width:1"
           id="polyline114"
           transform="translate(11.671939,-27.58822)" />
        <polyline
           points=" 82.5,42 82.5,56.25"
           style="fill:none;stroke:#ff0000;stroke-width:1"
           id="polyline116"
           transform="translate(11.671939,-27.58822)" />
        <polyline
           points=" 82.5,59.25 82.5,84.75"
           style="fill:none;stroke:#ff0000;stroke-width:1"
           id="polyline118"
           transform="translate(11.671939,-27.58822)" />
        <polyline
           points=" 82.5,87.75 82.5,102"
           style="fill:none;stroke:#ff0000;stroke-width:1"
           id="polyline120"
           transform="translate(11.671939,-27.58822)" />
        <polyline
           points=" 84,45 84,70.5"
           style="fill:none;stroke:#ff0000;stroke-width:1"
           id="polyline122"
           transform="translate(11.671939,-27.58822)" />
        <polyline
           points=" 84,73.5 84,99"
           style="fill:none;stroke:#ff0000;stroke-width:1"
           id="polyline124"
           transform="translate(11.671939,-27.58822)" />
        <polyline
           points=" 85.5,42 85.5,56.25"
           style="fill:none;stroke:#ff0000;stroke-width:1"
           id="polyline126"
           transform="translate(11.671939,-27.58822)" />
        <polyline
           points=" 85.5,59.25 85.5,84.75"
           style="fill:none;stroke:#ff0000;stroke-width:1"
           id="polyline128"
           transform="translate(11.671939,-27.58822)" />
        <polyline
           points=" 85.5,87.75 85.5,102"
           style="fill:none;stroke:#ff0000;stroke-width:1"
           id="polyline130"
           transform="translate(11.671939,-27.58822)" />
        <polyline
           points=" 87,45 87,70.5"
           style="fill:none;stroke:#ff0000;stroke-width:1"
           id="polyline132"
           transform="translate(11.671939,-27.58822)" />
        <polyline
           points=" 87,73.5 87,99"
           style="fill:none;stroke:#ff0000;stroke-width:1"
           id="polyline134"
           transform="translate(11.671939,-27.58822)" />
        <polyline
           points=" 88.5,42 88.5,56.25"
           style="fill:none;stroke:#ff0000;stroke-width:1"
           id="polyline136"
           transform="translate(11.671939,-27.58822)" />
        <polyline
           points=" 88.5,59.25 88.5,84.75"
           style="fill:none;stroke:#ff0000;stroke-width:1"
           id="polyline138"
           transform="translate(11.671939,-27.58822)" />
        <polyline
           points=" 88.5,87.75 88.5,102"
           style="fill:none;stroke:#ff0000;stroke-width:1"
           id="polyline140"
           transform="translate(11.671939,-27.58822)" />
        <polyline
           points=" 90,45 90,70.5"
           style="fill:none;stroke:#ff0000;stroke-width:1"
           id="polyline142"
           transform="translate(11.671939,-27.58822)" />
        <polyline
           points=" 90,73.5 90,99"
           style="fill:none;stroke:#ff0000;stroke-width:1"
           id="polyline144"
           transform="translate(11.671939,-27.58822)" />
        <polyline
           points=" 91.5,42 91.5,56.25"
           style="fill:none;stroke:#ff0000;stroke-width:1"
           id="polyline146"
           transform="translate(11.671939,-27.58822)" />
        <polyline
           points=" 91.5,59.25 91.5,84.75"
           style="fill:none;stroke:#ff0000;stroke-width:1"
           id="polyline148"
           transform="translate(11.671939,-27.58822)" />
        <polyline
           points=" 91.5,87.75 91.5,102"
           style="fill:none;stroke:#ff0000;stroke-width:1"
           id="polyline150"
           transform="translate(11.671939,-27.58822)" />
        <polyline
           points=" 93,45 93,70.5"
           style="fill:none;stroke:#ff0000;stroke-width:1"
           id="polyline152"
           transform="translate(11.671939,-27.58822)" />
        <polyline
           points=" 93,73.5 93,99"
           style="fill:none;stroke:#ff0000;stroke-width:1"
           id="polyline154"
           transform="translate(11.671939,-27.58822)" />
        <polyline
           points=" 94.5,42 94.5,56.25"
           style="fill:none;stroke:#ff0000;stroke-width:1"
           id="polyline156"
           transform="translate(11.671939,-27.58822)" />
        <polyline
           points=" 94.5,59.25 94.5,84.75"
           style="fill:none;stroke:#ff0000;stroke-width:1"
           id="polyline158"
           transform="translate(11.671939,-27.58822)" />
        <polyline
           points=" 94.5,87.75 94.5,102"
           style="fill:none;stroke:#ff0000;stroke-width:1"
           id="polyline160"
           transform="translate(11.671939,-27.58822)" />
        <polyline
           points=" 96,45 96,70.5"
           style="fill:none;stroke:#ff0000;stroke-width:1"
           id="polyline162"
           transform="translate(11.671939,-27.58822)" />
        <polyline
           points=" 96,73.5 96,99"
           style="fill:none;stroke:#ff0000;stroke-width:1"
           id="polyline164"
           transform="translate(11.671939,-27.58822)" />
        <polyline
           points=" 97.5,42 97.5,56.25"
           style="fill:none;stroke:#ff0000;stroke-width:1"
           id="polyline166"
           transform="translate(11.671939,-27.58822)" />
        <polyline
           points=" 97.5,59.25 97.5,84.75"
           style="fill:none;stroke:#ff0000;stroke-width:1"
           id="polyline168"
           transform="translate(11.671939,-27.58822)" />
        <polyline
           points=" 97.5,87.75 97.5,102"
           style="fill:none;stroke:#ff0000;stroke-width:1"
           id="polyline170"
           transform="translate(11.671939,-27.58822)" />
        <polyline
           points=" 99,45 99,70.5"
           style="fill:none;stroke:#ff0000;stroke-width:1"
           id="polyline172"
           transform="translate(11.671939,-27.58822)" />
        <polyline
           points=" 99,73.5 99,99"
           style="fill:none;stroke:#ff0000;stroke-width:1"
           id="polyline174"
           transform="translate(11.671939,-27.58822)" />
      </g>
      <g
         id="g176"
         style="stroke:#ff0000"
         transform="translate(11.671939,-27.58822)">
        <polyline
           points=" 198.123,45 198.123,70.5"
           style="fill:none;stroke:#ff0000;stroke-width:1"
           id="polyline178" />
        <polyline
           points=" 198.123,73.5 198.123,99"
           style="fill:none;stroke:#ff0000;stroke-width:1"
           id="polyline180" />
        <polyline
           points=" 199.623,42 199.623,56.25"
           style="fill:none;stroke:#ff0000;stroke-width:1"
           id="polyline182" />
        <polyline
           points=" 199.623,59.25 199.623,84.75"
           style="fill:none;stroke:#ff0000;stroke-width:1"
           id="polyline184" />
        <polyline
           points=" 199.623,87.75 199.623,102"
           style="fill:none;stroke:#ff0000;stroke-width:1"
           id="polyline186" />
        <polyline
           points=" 201.123,45 201.123,70.5"
           style="fill:none;stroke:#ff0000;stroke-width:1"
           id="polyline188" />
        <polyline
           points=" 201.123,73.5 201.123,99"
           style="fill:none;stroke:#ff0000;stroke-width:1"
           id="polyline190" />
        <polyline
           points=" 202.623,42 202.623,56.25"
           style="fill:none;stroke:#ff0000;stroke-width:1"
           id="polyline192" />
        <polyline
           points=" 202.623,59.25 202.623,84.75"
           style="fill:none;stroke:#ff0000;stroke-width:1"
           id="polyline194" />
        <polyline
           points=" 202.623,87.75 202.623,102"
           style="fill:none;stroke:#ff0000;stroke-width:1"
           id="polyline196" />
        <polyline
           points=" 204.123,45 204.123,70.5"
           style="fill:none;stroke:#ff0000;stroke-width:1"
           id="polyline198" />
        <polyline
           points=" 204.123,73.5 204.123,99"
           style="fill:none;stroke:#ff0000;stroke-width:1"
           id="polyline200" />
        <polyline
           points=" 205.623,42 205.623,56.25"
           style="fill:none;stroke:#ff0000;stroke-width:1"
           id="polyline202" />
        <polyline
           points=" 205.623,59.25 205.623,84.75"
           style="fill:none;stroke:#ff0000;stroke-width:1"
           id="polyline204" />
        <polyline
           points=" 205.623,87.75 205.623,102"
           style="fill:none;stroke:#ff0000;stroke-width:1"
           id="polyline206" />
        <polyline
           points=" 207.123,45 207.123,70.5"
           style="fill:none;stroke:#ff0000;stroke-width:1"
           id="polyline208" />
        <polyline
           points=" 207.123,73.5 207.123,99"
           style="fill:none;stroke:#ff0000;stroke-width:1"
           id="polyline210" />
        <polyline
           points=" 208.623,42 208.623,56.25"
           style="fill:none;stroke:#ff0000;stroke-width:1"
           id="polyline212" />
        <polyline
           points=" 208.623,59.25 208.623,84.75"
           style="fill:none;stroke:#ff0000;stroke-width:1"
           id="polyline214" />
        <polyline
           points=" 208.623,87.75 208.623,102"
           style="fill:none;stroke:#ff0000;stroke-width:1"
           id="polyline216" />
        <polyline
           points=" 210.123,45 210.123,70.5"
           style="fill:none;stroke:#ff0000;stroke-width:1"
           id="polyline218" />
        <polyline
           points=" 210.123,73.5 210.123,99"
           style="fill:none;stroke:#ff0000;stroke-width:1"
           id="polyline220" />
        <polyline
           points=" 211.623,42 211.623,56.25"
           style="fill:none;stroke:#ff0000;stroke-width:1"
           id="polyline222" />
        <polyline
           points=" 211.623,59.25 211.623,84.75"
           style="fill:none;stroke:#ff0000;stroke-width:1"
           id="polyline224" />
        <polyline
           points=" 211.623,87.75 211.623,102"
           style="fill:none;stroke:#ff0000;stroke-width:1"
           id="polyline226" />
        <polyline
           points=" 213.123,45 213.123,70.5"
           style="fill:none;stroke:#ff0000;stroke-width:1"
           id="polyline228" />
        <polyline
           points=" 213.123,73.5 213.123,99"
           style="fill:none;stroke:#ff0000;stroke-width:1"
           id="polyline230" />
        <polyline
           points=" 214.623,42 214.623,56.25"
           style="fill:none;stroke:#ff0000;stroke-width:1"
           id="polyline232" />
        <polyline
           points=" 214.623,59.25 214.623,84.75"
           style="fill:none;stroke:#ff0000;stroke-width:1"
           id="polyline234" />
        <polyline
           points=" 214.623,87.75 214.623,102"
           style="fill:none;stroke:#ff0000;stroke-width:1"
           id="polyline236" />
        <polyline
           points=" 216.123,45 216.123,70.5"
           style="fill:none;stroke:#ff0000;stroke-width:1"
           id="polyline238" />
        <polyline
           points=" 216.123,73.5 216.123,99"
           style="fill:none;stroke:#ff0000;stroke-width:1"
           id="polyline240" />
        <polyline
           points=" 217.623,42 217.623,56.25"
           style="fill:none;stroke:#ff0000;stroke-width:1"
           id="polyline242" />
        <polyline
           points=" 217.623,59.25 217.623,84.75"
           style="fill:none;stroke:#ff0000;stroke-width:1"
           id="polyline244" />
        <polyline
           points=" 217.623,87.75 217.623,102"
           style="fill:none;stroke:#ff0000;stroke-width:1"
           id="polyline246" />
        <polyline
           points=" 219.123,45 219.123,70.5"
           style="fill:none;stroke:#ff0000;stroke-width:1"
           id="polyline248" />
        <polyline
           points=" 219.123,73.5 219.123,99"
           style="fill:none;stroke:#ff0000;stroke-width:1"
           id="polyline250" />
        <polyline
           points=" 220.623,42 220.623,56.25"
           style="fill:none;stroke:#ff0000;stroke-width:1"
           id="polyline252" />
        <polyline
           points=" 220.623,59.25 220.623,84.75"
           style="fill:none;stroke:#ff0000;stroke-width:1"
           id="polyline254" />
        <polyline
           points=" 220.623,87.75 220.623,102"
           style="fill:none;stroke:#ff0000;stroke-width:1"
           id="polyline256" />
        <polyline
           points=" 222.123,45 222.123,70.5"
           style="fill:none;stroke:#ff0000;stroke-width:1"
           id="polyline258" />
        <polyline
           points=" 222.123,73.5 222.123,99"
           style="fill:none;stroke:#ff0000;stroke-width:1"
           id="polyline260" />
        <polyline
           points=" 223.623,42 223.623,56.25"
           style="fill:none;stroke:#ff0000;stroke-width:1"
           id="polyline262" />
        <polyline
           points=" 223.623,59.25 223.623,84.75"
           style="fill:none;stroke:#ff0000;stroke-width:1"
           id="polyline264" />
        <polyline
           points=" 223.623,87.75 223.623,102"
           style="fill:none;stroke:#ff0000;stroke-width:1"
           id="polyline266" />
        <polyline
           points=" 225.123,45 225.123,70.5"
           style="fill:none;stroke:#ff0000;stroke-width:1"
           id="polyline268" />
        <polyline
           points=" 225.123,73.5 225.123,99"
           style="fill:none;stroke:#ff0000;stroke-width:1"
           id="polyline270" />
        <polyline
           points=" 226.623,42 226.623,56.25"
           style="fill:none;stroke:#ff0000;stroke-width:1"
           id="polyline272" />
        <polyline
           points=" 226.623,59.25 226.623,84.75"
           style="fill:none;stroke:#ff0000;stroke-width:1"
           id="polyline274" />
        <polyline
           points=" 226.623,87.75 226.623,102"
           style="fill:none;stroke:#ff0000;stroke-width:1"
           id="polyline276" />
        <polyline
           points=" 228.123,45 228.123,70.5"
           style="fill:none;stroke:#ff0000;stroke-width:1"
           id="polyline278" />
        <polyline
           points=" 228.123,73.5 228.123,99"
           style="fill:none;stroke:#ff0000;stroke-width:1"
           id="polyline280" />
        <polyline
           points=" 229.623,42 229.623,56.25"
           style="fill:none;stroke:#ff0000;stroke-width:1"
           id="polyline282" />
        <polyline
           points=" 229.623,59.25 229.623,84.75"
           style="fill:none;stroke:#ff0000;stroke-width:1"
           id="polyline284" />
        <polyline
           points=" 229.623,87.75 229.623,102"
           style="fill:none;stroke:#ff0000;stroke-width:1"
           id="polyline286" />
        <polyline
           points=" 231.123,45 231.123,70.5"
           style="fill:none;stroke:#ff0000;stroke-width:1"
           id="polyline288" />
        <polyline
           points=" 231.123,73.5 231.123,99"
           style="fill:none;stroke:#ff0000;stroke-width:1"
           id="polyline290" />
        <polyline
           points=" 232.623,42 232.623,56.25"
           style="fill:none;stroke:#ff0000;stroke-width:1"
           id="polyline292" />
        <polyline
           points=" 232.623,59.25 232.623,84.75"
           style="fill:none;stroke:#ff0000;stroke-width:1"
           id="polyline294" />
        <polyline
           points=" 232.623,87.75 232.623,102"
           style="fill:none;stroke:#ff0000;stroke-width:1"
           id="polyline296" />
        <polyline
           points=" 234.123,45 234.123,70.5"
           style="fill:none;stroke:#ff0000;stroke-width:1"
           id="polyline298" />
        <polyline
           points=" 234.123,73.5 234.123,99"
           style="fill:none;stroke:#ff0000;stroke-width:1"
           id="polyline300" />
        <polyline
           points=" 235.623,42 235.623,56.25"
           style="fill:none;stroke:#ff0000;stroke-width:1"
           id="polyline302" />
        <polyline
           points=" 235.623,59.25 235.623,84.75"
           style="fill:none;stroke:#ff0000;stroke-width:1"
           id="polyline304" />
        <polyline
           points=" 235.623,87.75 235.623,102"
           style="fill:none;stroke:#ff0000;stroke-width:1"
           id="polyline306" />
        <polyline
           points=" 237.123,45 237.123,70.5"
           style="fill:none;stroke:#ff0000;stroke-width:1"
           id="polyline308" />
        <polyline
           points=" 237.123,73.5 237.123,99"
           style="fill:none;stroke:#ff0000;stroke-width:1"
           id="polyline310" />
        <polyline
           points=" 238.623,42 238.623,56.25"
           style="fill:none;stroke:#ff0000;stroke-width:1"
           id="polyline312" />
        <polyline
           points=" 238.623,59.25 238.623,84.75"
           style="fill:none;stroke:#ff0000;stroke-width:1"
           id="polyline314" />
        <polyline
           points=" 238.623,87.75 238.623,102"
           style="fill:none;stroke:#ff0000;stroke-width:1"
           id="polyline316" />
        <polyline
           points=" 240.123,45 240.123,70.5"
           style="fill:none;stroke:#ff0000;stroke-width:1"
           id="polyline318" />
        <polyline
           points=" 240.123,73.5 240.123,99"
           style="fill:none;stroke:#ff0000;stroke-width:1"
           id="polyline320" />
        <polyline
           points=" 241.623,42 241.623,56.25"
           style="fill:none;stroke:#ff0000;stroke-width:1"
           id="polyline322" />
        <polyline
           points=" 241.623,59.25 241.623,84.75"
           style="fill:none;stroke:#ff0000;stroke-width:1"
           id="polyline324" />
        <polyline
           points=" 241.623,87.75 241.623,102"
           style="fill:none;stroke:#ff0000;stroke-width:1"
           id="polyline326" />
        <polyline
           points=" 243.123,45 243.123,70.5"
           style="fill:none;stroke:#ff0000;stroke-width:1"
           id="polyline328" />
        <polyline
           points=" 243.123,73.5 243.123,99"
           style="fill:none;stroke:#ff0000;stroke-width:1"
           id="polyline330" />
        <polyline
           points=" 244.623,42 244.623,56.25"
           style="fill:none;stroke:#ff0000;stroke-width:1"
           id="polyline332" />
        <polyline
           points=" 244.623,59.25 244.623,84.75"
           style="fill:none;stroke:#ff0000;stroke-width:1"
           id="polyline334" />
        <polyline
           points=" 244.623,87.75 244.623,102"
           style="fill:none;stroke:#ff0000;stroke-width:1"
           id="polyline336" />
        <polyline
           points=" 246.123,45 246.123,70.5"
           style="fill:none;stroke:#ff0000;stroke-width:1"
           id="polyline338" />
        <polyline
           points=" 246.123,73.5 246.123,99"
           style="fill:none;stroke:#ff0000;stroke-width:1"
           id="polyline340" />
      </g>
      <polyline
         points=" 1,42 6,42 6,45 11,45 11,42 51,42 98.123,42 100.623,42 100.623,45 105.623,45 105.623,42 108.123,42 110.623,42 110.623,45 115.623,45 115.623,42 118.123,42 120.623,42 120.623,45 125.623,45 125.623,42 128.123,42 130.623,42 130.623,45 135.623,45 135.623,42 138.123,42 140.623,42 140.623,45 145.623,45 145.623,42 148.123,42 150.623,42 150.623,45 155.623,45 155.623,42 158.123,42 160.623,42 160.623,45 165.623,45 165.623,42 168.123,42 170.623,42 170.623,45 175.623,45 175.623,42 178.123,42 180.623,42 180.623,45 185.623,45 185.623,42 188.123,42 190.623,42 190.623,45 195.623,45 195.623,42 198.123,42 245.247,42 285.247,42 285.247,45 290.247,45 290.247,42 295.247,42 295.247,102 290.247,102 290.247,99 285.247,99 285.247,102 245.247,102 198.123,102 195.623,102 195.623,99 190.623,99 190.623,102 188.123,102 185.623,102 185.623,99 180.623,99 180.623,102 178.123,102 175.623,102 175.623,99 170.623,99 170.623,102 168.123,102 165.623,102 165.623,99 160.623,99 160.623,102 158.123,102 155.623,102 155.623,99 150.623,99 150.623,102 148.123,102 145.623,102 145.623,99 140.623,99 140.623,102 138.123,102 135.623,102 135.623,99 130.623,99 130.623,102 128.123,102 125.623,102 125.623,99 120.623,99 120.623,102 118.123,102 115.623,102 115.623,99 110.623,99 110.623,102 108.123,102 105.623,102 105.623,99 100.623,99 100.623,102 98.123,102 51,102 11,102 11,99 6,99 6,102 1,102 1,42"
         style="fill:none;stroke:#ff0000;stroke-width:1"
         id="bigbox"
         transform="translate(11.671939,-27.58822)"
         inkscape:label="#polyline8" />
    </g>
    <polyline
       points=" 98.123,6 100.623,6 100.623,3 105.623,3 105.623,6 108.123,6 110.623,6 110.623,3 115.623,3 115.623,6 118.123,6 120.623,6 120.623,3 125.623,3 125.623,6 128.123,6 130.623,6 130.623,3 135.623,3 135.623,6 138.123,6 140.623,6 140.623,3 145.623,3 145.623,6 148.123,6 150.623,6 150.623,3 155.623,3 155.623,6 158.123,6 160.623,6 160.623,3 165.623,3 165.623,6 168.123,6 170.623,6 170.623,3 175.623,3 175.623,6 178.123,6 180.623,6 180.623,3 185.623,3 185.623,6 188.123,6 190.623,6 190.623,3 195.623,3 195.623,6 198.123,6 198.123,6 198.273,6 198.423,6.002 198.573,6.006 198.723,6.011 198.873,6.018 199.023,6.026 199.173,6.036 199.322,6.047 199.472,6.06 199.621,6.074 199.77,6.09 199.919,6.107 200.068,6.126 200.217,6.146 200.365,6.168 200.513,6.191 200.661,6.216 200.809,6.242 200.956,6.269 201.103,6.299 201.25,6.329 201.397,6.361 201.543,6.395 201.689,6.429 201.834,6.466 201.98,6.504 202.124,6.543 202.269,6.584 202.413,6.626 202.556,6.669 202.699,6.714 202.842,6.761 202.984,6.809 203.126,6.858 203.267,6.909 203.408,6.961 203.548,7.015 203.687,7.07 203.826,7.126 203.965,7.184 204.103,7.243 204.24,7.303 204.376,7.365 204.512,7.428 204.648,7.493 204.783,7.559 204.917,7.626 205.05,7.695 205.183,7.765 205.315,7.836 205.446,7.908 205.577,7.982 205.706,8.057 205.835,8.134 205.964,8.212 206.091,8.291 206.218,8.371 206.344,8.453 206.469,8.535 206.593,8.619 206.716,8.705 206.839,8.791 206.961,8.879 207.081,8.968 207.201,9.058 207.32,9.15 207.438,9.242 207.555,9.336 207.671,9.431 207.787,9.527 207.901,9.624 208.014,9.722 208.126,9.822 208.238,9.922 208.348,10.024 208.457,10.127 208.565,10.231 208.673,10.336 208.779,10.442 208.884,10.549 208.988,10.657 209.091,10.766 209.192,10.876 209.293,10.988 209.393,11.1 209.491,11.213 209.588,11.327 209.684,11.442 209.779,11.558 209.873,11.675 209.966,11.793 210.057,11.912 210.148,12.032 210.237,12.153 210.325,12.274 210.411,12.397 210.497,12.52 210.581,12.644 210.664,12.769 210.745,12.895 210.826,13.022 210.905,13.149 210.983,13.277 211.059,13.406 211.135,13.536 211.209,13.666 211.281,13.798 211.353,13.93 211.423,14.062 211.492,14.196 211.559,14.33 211.625,14.464 211.69,14.6 211.753,14.736 211.815,14.872 211.875,15.009 211.935,15.147 211.992,15.286 212.049,15.425 212.104,15.564 212.158,15.704 212.21,15.845 212.261,15.986 212.31,16.128 212.358,16.27 212.405,16.412 212.45,16.555 212.494,16.699 212.536,16.843 212.577,16.987 212.616,17.132 212.654,17.277 212.691,17.422 212.726,17.568 212.759,17.714 212.791,17.861 212.822,18.008 212.851,18.155 212.879,18.302 212.905,18.45 212.93,18.598 212.953,18.746 212.975,18.895 212.995,19.043 213.014,19.192 213.031,19.341 213.047,19.49 213.062,19.639 213.074,19.789 213.086,19.938 213.096,20.088 213.104,20.238 213.111,20.388 213.116,20.538 213.12,20.688 213.123,20.838 213.123,20.988 213.123,21.138 213.121,21.288 213.117,21.437 213.112,21.587 213.105,21.737 213.097,21.887 213.087,22.037 213.076,22.186 213.064,22.336 213.05,22.485 213.034,22.634 213.017,22.783 212.998,22.932 212.978,23.081 212.957,23.229 212.934,23.377 212.909,23.525 212.883,23.673 212.856,23.821 212.827,23.968 212.796,24.115 212.764,24.261 212.731,24.408 212.696,24.553 212.66,24.699 212.622,24.844 212.583,24.989 212.543,25.133 212.5,25.277 212.457,25.421 212.412,25.564 212.366,25.707 212.318,25.849 212.269,25.991 212.218,26.132 212.166,26.272 212.113,26.413 212.058,26.552 212.002,26.691 211.944,26.83 211.885,26.968 211.825,27.105 211.763,27.242 211.7,27.378 211.635,27.513 211.569,27.648 211.502,27.782 211.434,27.916 211.364,28.048 211.293,28.18 211.22,28.312 211.147,28.442 211.072,28.572 210.995,28.701 210.917,28.83 210.839,28.957 210.758,29.084 210.677,29.21 210.594,29.335 210.51,29.459 210.425,29.583 210.339,29.705 210.251,29.827 210.162,29.948 210.072,30.068 209.981,30.187 209.888,30.305 209.794,30.422 209.7,30.538 209.604,30.654 209.507,30.768 209.408,30.881 209.309,30.994 209.208,31.105 209.107,31.215 209.004,31.325 208.9,31.433 208.795,31.54 208.69,31.646 208.583,31.752 208.475,31.856 208.365,31.959 208.255,32.06 208.144,32.161 208.032,32.261 207.919,32.359 207.805,32.457 207.69,32.553 207.574,32.648 207.457,32.742 207.339,32.835 207.22,32.926 207.1,33.017 206.98,33.106 206.858,33.194 206.736,33.281 206.613,33.366 206.489,33.45 206.364,33.533 206.238,33.615 206.111,33.696 205.984,33.775 205.856,33.853 205.727,33.93 205.597,34.005 205.467,34.079 205.336,34.152 205.204,34.223 205.071,34.293 204.938,34.362 204.804,34.43 204.669,34.496 204.534,34.561 204.398,34.624 204.262,34.686 204.124,34.747 203.987,34.806 203.848,34.864 203.709,34.921 203.57,34.976 203.43,35.03 203.289,35.082 203.148,35.133 203.007,35.182 202.865,35.23 202.722,35.277 202.579,35.322 202.436,35.366 202.292,35.409 202.147,35.45 202.003,35.489 201.858,35.527 201.712,35.564 201.566,35.599 201.42,35.633 201.274,35.665 201.127,35.696 200.98,35.725 200.832,35.753 200.685,35.779 200.537,35.804 200.389,35.827 200.24,35.849 200.092,35.87 199.943,35.889 199.794,35.906 199.645,35.922 199.495,35.937 199.346,35.95 199.196,35.961 199.047,35.971 198.897,35.98 198.747,35.987 198.597,35.992 198.447,35.996 198.297,35.998 198.147,35.999 158.147,35.999 158.147,38.999 153.147,38.999 153.147,35.999 148.147,35.999 143.147,35.999 143.147,38.999 138.147,38.999 138.147,35.999 98.147,35.999 98.147,35.999 97.922,35.998 97.697,35.993 97.473,35.984 97.248,35.972 97.023,35.957 96.799,35.939 96.575,35.917 96.352,35.892 96.128,35.863 95.906,35.831 95.683,35.796 95.462,35.757 95.241,35.715 95.02,35.67 94.801,35.621 94.582,35.57 94.364,35.514 94.146,35.456 93.93,35.394 93.714,35.33 93.5,35.261 93.287,35.19 93.074,35.116 92.863,35.038 92.653,34.957 92.444,34.873 92.237,34.786 92.031,34.696 91.826,34.603 91.623,34.506 91.421,34.407 91.221,34.304 91.022,34.199 90.825,34.091 90.629,33.979 90.435,33.865 90.243,33.748 90.053,33.628 89.864,33.505 89.678,33.38 89.493,33.251 89.31,33.12 89.129,32.986 88.951,32.849 88.774,32.71 88.599,32.568 88.427,32.424 88.257,32.277 88.088,32.127 87.923,31.975 87.759,31.82 87.598,31.663 87.439,31.504 87.283,31.342 87.129,31.178 86.978,31.011 86.829,30.843 86.682,30.672 86.539,30.499 86.397,30.324 86.259,30.146 86.123,29.967 85.99,29.786 85.859,29.602 85.732,29.417 85.607,29.23 85.485,29.041 85.366,28.85 85.249,28.657 85.136,28.463 85.025,28.267 84.918,28.069 84.813,27.87 84.712,27.669 84.613,27.467 84.518,27.263 84.425,27.058 84.336,26.852 84.25,26.644 84.167,26.435 84.087,26.225 84.01,26.013 83.936,25.8 83.866,25.587 83.799,25.372 83.735,25.156 83.674,24.94 83.617,24.722 83.562,24.504 83.511,24.285 83.464,24.065 83.419,23.844 83.378,23.623 83.341,23.401 83.306,23.179 83.275,22.956 83.248,22.733 83.223,22.509 83.202,22.285 83.185,22.061 83.171,21.836 83.16,21.611 83.152,21.386 83.148,21.161 83.147,20.936 83.15,20.711 83.156,20.487 83.165,20.262 83.178,20.037 83.194,19.813 83.214,19.589 83.237,19.365 83.263,19.141 83.292,18.918 83.325,18.696 83.361,18.474 83.401,18.252 83.444,18.031 83.49,17.811 83.54,17.591 83.592,17.373 83.648,17.155 83.708,16.938 83.77,16.722 83.836,16.506 83.905,16.292 83.977,16.079 84.053,15.867 84.131,15.656 84.213,15.447 84.298,15.238 84.386,15.031 84.477,14.826 84.571,14.621 84.668,14.418 84.768,14.217 84.872,14.017 84.978,13.819 85.087,13.622 85.199,13.427 85.314,13.233 85.432,13.042 85.553,12.852 85.677,12.664 85.803,12.478 85.932,12.294 86.064,12.111 86.199,11.931 86.336,11.753 86.476,11.577 86.619,11.403 86.764,11.231 86.912,11.061 87.062,10.894 87.215,10.729 87.37,10.566 87.528,10.406 87.688,10.247 87.851,10.092 88.015,9.939 88.182,9.788 88.352,9.64 88.523,9.494 88.697,9.351 88.873,9.21 89.05,9.073 89.23,8.938 89.412,8.805 89.596,8.676 89.782,8.549 89.97,8.425 90.159,8.303 90.351,8.185 90.544,8.069 90.738,7.957 90.935,7.847 91.133,7.741 91.333,7.637 91.534,7.536 91.737,7.438 91.941,7.344 92.146,7.252 92.353,7.164 92.561,7.078 92.771,6.996 92.981,6.917 93.193,6.841 93.406,6.768 93.62,6.699 93.835,6.633 94.051,6.57 94.268,6.51 94.486,6.453 94.704,6.4 94.924,6.35 95.144,6.303 95.365,6.26 95.586,6.22 95.808,6.183 96.03,6.15 96.253,6.12 96.477,6.093 96.701,6.069 96.925,6.049 97.149,6.033 97.374,6.019 97.599,6.01 97.823,6.003 98.048,6"
       style="fill:none;stroke:#ff0000;stroke-width:1"
       id="polyline342"
       transform="translate(64.617409,-75.914104)" />
    <polyline
       points=" 98.123,111 100.623,111 100.623,108 105.623,108 105.623,111 108.123,111 110.623,111 110.623,108 115.623,108 115.623,111 118.123,111 120.623,111 120.623,108 125.623,108 125.623,111 128.123,111 130.623,111 130.623,108 135.623,108 135.623,111 138.123,111 140.623,111 140.623,108 145.623,108 145.623,111 148.123,111 150.623,111 150.623,108 155.623,108 155.623,111 158.123,111 160.623,111 160.623,108 165.623,108 165.623,111 168.123,111 170.623,111 170.623,108 175.623,108 175.623,111 178.123,111 180.623,111 180.623,108 185.623,108 185.623,111 188.123,111 190.623,111 190.623,108 195.623,108 195.623,111 198.123,111 198.123,111 198.273,111 198.423,111.002 198.573,111.006 198.723,111.011 198.873,111.018 199.023,111.026 199.173,111.036 199.322,111.047 199.472,111.06 199.621,111.074 199.77,111.09 199.919,111.107 200.068,111.126 200.217,111.146 200.365,111.168 200.513,111.191 200.661,111.216 200.809,111.242 200.956,111.269 201.103,111.299 201.25,111.329 201.397,111.361 201.543,111.395 201.689,111.429 201.834,111.466 201.98,111.504 202.124,111.543 202.269,111.584 202.413,111.626 202.556,111.669 202.699,111.714 202.842,111.761 202.984,111.809 203.126,111.858 203.267,111.909 203.408,111.961 203.548,112.015 203.687,112.07 203.826,112.126 203.965,112.184 204.103,112.243 204.24,112.303 204.376,112.365 204.512,112.428 204.648,112.493 204.783,112.559 204.917,112.626 205.05,112.695 205.183,112.765 205.315,112.836 205.446,112.908 205.577,112.982 205.706,113.057 205.835,113.134 205.964,113.212 206.091,113.291 206.218,113.371 206.344,113.453 206.469,113.535 206.593,113.619 206.716,113.705 206.839,113.791 206.961,113.879 207.081,113.968 207.201,114.058 207.32,114.15 207.438,114.242 207.555,114.336 207.671,114.431 207.787,114.527 207.901,114.624 208.014,114.722 208.126,114.822 208.238,114.922 208.348,115.024 208.457,115.127 208.565,115.231 208.673,115.336 208.779,115.442 208.884,115.549 208.988,115.657 209.091,115.766 209.192,115.876 209.293,115.988 209.393,116.1 209.491,116.213 209.588,116.327 209.684,116.442 209.779,116.558 209.873,116.675 209.966,116.793 210.057,116.912 210.148,117.032 210.237,117.153 210.325,117.274 210.411,117.397 210.497,117.52 210.581,117.644 210.664,117.769 210.745,117.895 210.826,118.022 210.905,118.149 210.983,118.277 211.059,118.406 211.135,118.536 211.209,118.666 211.281,118.798 211.353,118.93 211.423,119.062 211.492,119.196 211.559,119.33 211.625,119.464 211.69,119.6 211.753,119.736 211.815,119.872 211.875,120.009 211.935,120.147 211.992,120.286 212.049,120.425 212.104,120.564 212.158,120.704 212.21,120.845 212.261,120.986 212.31,121.128 212.358,121.27 212.405,121.412 212.45,121.555 212.494,121.699 212.536,121.843 212.577,121.987 212.616,122.132 212.654,122.277 212.691,122.422 212.726,122.568 212.759,122.714 212.791,122.861 212.822,123.008 212.851,123.155 212.879,123.302 212.905,123.45 212.93,123.598 212.953,123.746 212.975,123.895 212.995,124.043 213.014,124.192 213.031,124.341 213.047,124.49 213.062,124.639 213.074,124.789 213.086,124.938 213.096,125.088 213.104,125.238 213.111,125.388 213.116,125.538 213.12,125.688 213.123,125.838 213.123,125.988 213.123,126.138 213.121,126.288 213.117,126.437 213.112,126.587 213.105,126.737 213.097,126.887 213.087,127.037 213.076,127.186 213.064,127.336 213.05,127.485 213.034,127.634 213.017,127.783 212.998,127.932 212.978,128.081 212.957,128.229 212.934,128.377 212.909,128.525 212.883,128.673 212.856,128.821 212.827,128.968 212.796,129.115 212.764,129.261 212.731,129.408 212.696,129.553 212.66,129.699 212.622,129.844 212.583,129.989 212.543,130.133 212.5,130.277 212.457,130.421 212.412,130.564 212.366,130.707 212.318,130.849 212.269,130.991 212.218,131.132 212.166,131.272 212.113,131.413 212.058,131.552 212.002,131.691 211.944,131.83 211.885,131.968 211.825,132.105 211.763,132.242 211.7,132.378 211.635,132.513 211.569,132.648 211.502,132.782 211.434,132.916 211.364,133.048 211.293,133.18 211.22,133.312 211.147,133.442 211.072,133.572 210.995,133.701 210.917,133.83 210.839,133.957 210.758,134.084 210.677,134.21 210.594,134.335 210.51,134.459 210.425,134.583 210.339,134.705 210.251,134.827 210.162,134.948 210.072,135.068 209.981,135.187 209.888,135.305 209.794,135.422 209.7,135.538 209.604,135.654 209.507,135.768 209.408,135.881 209.309,135.994 209.208,136.105 209.107,136.215 209.004,136.325 208.9,136.433 208.795,136.54 208.69,136.646 208.583,136.752 208.475,136.856 208.365,136.959 208.255,137.06 208.144,137.161 208.032,137.261 207.919,137.359 207.805,137.457 207.69,137.553 207.574,137.648 207.457,137.742 207.339,137.835 207.22,137.926 207.1,138.017 206.98,138.106 206.858,138.194 206.736,138.281 206.613,138.366 206.489,138.45 206.364,138.533 206.238,138.615 206.111,138.696 205.984,138.775 205.856,138.853 205.727,138.93 205.597,139.005 205.467,139.079 205.336,139.152 205.204,139.223 205.071,139.293 204.938,139.362 204.804,139.43 204.669,139.496 204.534,139.561 204.398,139.624 204.262,139.686 204.124,139.747 203.987,139.806 203.848,139.864 203.709,139.921 203.57,139.976 203.43,140.03 203.289,140.082 203.148,140.133 203.007,140.182 202.865,140.23 202.722,140.277 202.579,140.322 202.436,140.366 202.292,140.409 202.147,140.45 202.003,140.489 201.858,140.527 201.712,140.564 201.566,140.599 201.42,140.633 201.274,140.665 201.127,140.696 200.98,140.725 200.832,140.753 200.685,140.779 200.537,140.804 200.389,140.827 200.24,140.849 200.092,140.87 199.943,140.889 199.794,140.906 199.645,140.922 199.495,140.937 199.346,140.95 199.196,140.961 199.047,140.971 198.897,140.98 198.747,140.987 198.597,140.992 198.447,140.996 198.297,140.998 198.147,140.999 158.147,140.999 158.147,143.999 153.147,143.999 153.147,140.999 148.147,140.999 143.147,140.999 143.147,143.999 138.147,143.999 138.147,140.999 98.147,140.999 98.147,140.999 97.922,140.998 97.697,140.993 97.473,140.984 97.248,140.972 97.023,140.957 96.799,140.939 96.575,140.917 96.352,140.892 96.128,140.863 95.906,140.831 95.683,140.796 95.462,140.757 95.241,140.715 95.02,140.67 94.801,140.621 94.582,140.57 94.364,140.514 94.146,140.456 93.93,140.394 93.714,140.33 93.5,140.261 93.287,140.19 93.074,140.116 92.863,140.038 92.653,139.957 92.444,139.873 92.237,139.786 92.031,139.696 91.826,139.603 91.623,139.506 91.421,139.407 91.221,139.304 91.022,139.199 90.825,139.091 90.629,138.979 90.435,138.865 90.243,138.748 90.053,138.628 89.864,138.505 89.678,138.38 89.493,138.251 89.31,138.12 89.129,137.986 88.951,137.849 88.774,137.71 88.599,137.568 88.427,137.424 88.257,137.277 88.088,137.127 87.923,136.975 87.759,136.82 87.598,136.663 87.439,136.504 87.283,136.342 87.129,136.178 86.978,136.011 86.829,135.843 86.682,135.672 86.539,135.499 86.397,135.324 86.259,135.146 86.123,134.967 85.99,134.786 85.859,134.602 85.732,134.417 85.607,134.23 85.485,134.041 85.366,133.85 85.249,133.657 85.136,133.463 85.025,133.267 84.918,133.069 84.813,132.87 84.712,132.669 84.613,132.467 84.518,132.263 84.425,132.058 84.336,131.852 84.25,131.644 84.167,131.435 84.087,131.225 84.01,131.013 83.936,130.8 83.866,130.587 83.799,130.372 83.735,130.156 83.674,129.94 83.617,129.722 83.562,129.504 83.511,129.285 83.464,129.065 83.419,128.844 83.378,128.623 83.341,128.401 83.306,128.179 83.275,127.956 83.248,127.733 83.223,127.509 83.202,127.285 83.185,127.061 83.171,126.836 83.16,126.611 83.152,126.386 83.148,126.161 83.147,125.936 83.15,125.711 83.156,125.487 83.165,125.262 83.178,125.037 83.194,124.813 83.214,124.589 83.237,124.365 83.263,124.141 83.292,123.918 83.325,123.696 83.361,123.474 83.401,123.252 83.444,123.031 83.49,122.811 83.54,122.591 83.592,122.373 83.648,122.155 83.708,121.938 83.77,121.722 83.836,121.506 83.905,121.292 83.977,121.079 84.053,120.867 84.131,120.656 84.213,120.447 84.298,120.238 84.386,120.031 84.477,119.826 84.571,119.621 84.668,119.418 84.768,119.217 84.872,119.017 84.978,118.819 85.087,118.622 85.199,118.427 85.314,118.233 85.432,118.042 85.553,117.852 85.677,117.664 85.803,117.478 85.932,117.294 86.064,117.111 86.199,116.931 86.336,116.753 86.476,116.577 86.619,116.403 86.764,116.231 86.912,116.061 87.062,115.894 87.215,115.729 87.37,115.566 87.528,115.406 87.688,115.247 87.851,115.092 88.015,114.939 88.182,114.788 88.352,114.64 88.523,114.494 88.697,114.351 88.873,114.21 89.05,114.073 89.23,113.938 89.412,113.805 89.596,113.676 89.782,113.549 89.97,113.425 90.159,113.303 90.351,113.185 90.544,113.069 90.738,112.957 90.935,112.847 91.133,112.741 91.333,112.637 91.534,112.536 91.737,112.438 91.941,112.344 92.146,112.252 92.353,112.164 92.561,112.078 92.771,111.996 92.981,111.917 93.193,111.841 93.406,111.768 93.62,111.699 93.835,111.633 94.051,111.57 94.268,111.51 94.486,111.453 94.704,111.4 94.924,111.35 95.144,111.303 95.365,111.26 95.586,111.22 95.808,111.183 96.03,111.15 96.253,111.12 96.477,111.093 96.701,111.069 96.925,111.049 97.149,111.033 97.374,111.019 97.599,111.01 97.823,111.003 98.048,111"
       style="fill:none;stroke:#ff0000;stroke-width:1"
       id="polyline344"
       transform="translate(-75.185798,-180.9141)" />
  </g>
</svg>
